<?xml version="1.0" encoding="UTF-8"?>
<svg id="Layer_1" xmlns="http://www.w3.org/2000/svg" viewBox="0 0 841.89 141.73">
  <defs>
    <style>
      .cls-1 {
        fill: #253b6a;
      }

      .cls-2 {
        fill: #ec482d;
      }

      .cls-3 {
        fill: #4e7a40;
      }

      .cls-4 {
        fill: #c32936;
      }

      .cls-5 {
        fill: #f59e2d;
      }

      .cls-6 {
        fill: #189dd6;
      }

      .cls-7 {
        fill: #f27229;
      }

      .cls-8 {
        fill: #e92830;
      }

      .cls-9 {
        fill: #67b94a;
      }

      .cls-10 {
        fill: #e02685;
      }

      .cls-11 {
        fill: #359b4a;
      }

      .cls-12 {
        fill: #92223c;
      }

      .cls-13 {
        fill: #197fbb;
      }

      .cls-14 {
        fill: #1d9ed6;
      }

      .cls-15 {
        fill: #1c9ed6;
      }

      .cls-16 {
        fill: #ce8d2d;
      }

      .cls-17 {
        fill: #1e9ed6;
      }

      .cls-18 {
        fill: #0e588c;
      }

      .cls-19 {
        fill: #d2a12d;
      }

      .cls-20 {
        fill: #1a9dd6;
      }

      .cls-21 {
        fill: #18aed9;
      }

      .cls-22 {
        fill: #fab71e;
      }

      .cls-23 {
        fill: #209ed6;
      }

      .cls-24 {
        fill: #1b9dd6;
      }
    </style>
  </defs>
  <g>
    <path class="cls-6" d="M503.34,52.62c-6.31,0-12.14.05-17.97-.08-.52-.01-1.31-1.09-1.47-1.82-.93-4.16-2.22-8.1-5.22-11.01-8.19-7.98-23.05-5.2-28.48,5.29-2.22,4.3-3.43,8.98-3.84,13.86-.88,10.45-1.19,20.92,1.13,31.2,2.03,9.02,6.49,15.84,15.18,17.87,6.52,1.52,12.91.91,18.93-2.6,1.63-.95,2.41-2.2,2.33-4.43-.17-5.1-.05-10.21-.05-15.53-5.92,0-11.65,0-17.66,0,0-5.42,0-10.63,0-16.2,12.26,0,24.62,0,37.31,0,0,3.85-.03,7.8,0,11.75.07,9.33.22,18.67.2,28,0,1.22-.52,2.72-1.26,3.63-3.97,4.87-9.03,7.9-14.57,9.96-9.57,3.55-19.35,4.8-29.34,2.87-14.89-2.88-25.07-12.46-29.51-28.33-5.02-17.93-5.16-36.26.97-53.97,5.17-14.92,15.54-23.09,29.81-25.09,6.59-.92,13.14-.54,19.54,1.37,13.03,3.89,20.46,13.64,23.23,28.08.28,1.48.42,2.99.72,5.17Z"/>
    <path class="cls-6" d="M764.14,89.3c6.46,0,12.92,0,19.54,0,.12,1.28.17,2.57.37,3.82,1.1,6.75,5.16,11.5,11.57,12.47,4.06.61,8.32.67,12.37.05,7.14-1.1,10.72-7.66,8.82-15.11-.93-3.67-3.26-6.02-6.23-7.39-5.17-2.39-10.54-4.26-15.71-6.69-5.42-2.55-11.01-4.91-15.98-8.35-17.78-12.29-15.82-39.08,2.81-48.26,13.59-6.7,27.37-7.09,40.71.74,8.99,5.28,13.68,14.06,14.26,25.4.03.53-.78,1.58-1.21,1.59-5.98.11-11.96.07-18.1.07-.16-.7-.36-1.37-.45-2.06-.94-7.08-4.16-11.16-10.48-12.52-4.77-1.02-9.6-1-14.12,1.5-3.43,1.9-5.58,4.79-5.87,9.24-.3,4.56,1.6,7.87,5.01,9.72,4.56,2.48,9.31,4.6,14.12,6.42,6.79,2.56,13.47,5.28,19.5,9.72,13.78,10.14,14.02,27.7,9.2,37.72-3.32,6.89-8.71,11.18-15.23,13.41-14.36,4.91-28.39,4.19-41.57-4.53-8.63-5.7-13.37-15.49-13.33-26.98Z"/>
    <path class="cls-6" d="M603.78,123.64c2.31-7.11,4.52-13.97,6.77-20.81,9.11-27.73,18.24-55.46,27.31-83.21.48-1.46.99-2.06,2.43-2.03,4.82.09,9.64.07,14.46-.04,1.46-.03,2.14.44,2.69,2.03,11.67,34.12,23.41,68.2,35.13,102.3.1.28.14.59.3,1.3-1.67,0-3.16,0-4.66,0-4.75.02-9.49-.04-14.24.09-1.53.04-2.18-.57-2.64-2.13-1.75-5.93-3.66-11.81-5.4-17.75-.44-1.5-1.08-2-2.49-1.97-10.22.19-20.43.32-30.65.38-1.33,0-1.91.48-2.3,1.88-1.67,5.96-3.4,11.9-5.24,17.8-.27.85-1.21,2.04-1.86,2.06-6.42.15-12.83.09-19.6.09ZM648.06,45.53c-.18-.02-.36-.04-.54-.07-3.72,12.73-7.44,25.45-11.17,38.24,7.9,0,15.51,0,23.49,0-3.99-12.94-7.88-25.56-11.77-38.17Z"/>
    <path class="cls-6" d="M698.06,17.28c6.69,0,13.07,0,19.91,0,0,29.26,0,58.44,0,87.81,14.18,0,27.91,0,41.81,0,0,5.7,0,11.34,0,17.41-20.17,0-40.34,0-60.97,0-.25-34.76-.49-69.82-.75-105.22Z"/>
    <path class="cls-3" d="M514.85,84.84c-.45-5.76-.86-11.03-1.3-16.65,7.39.73,14.24,1.41,21.13,2.09.2,2.71.38,5.26.58,8.04-6.59,2.11-13.19,4.22-20.41,6.52Z"/>
    <path class="cls-7" d="M558.44,101.56c2.48,0,4.71,0,7.17,0,1.26,7.42,2.53,14.92,3.89,22.9-5.05,0-9.85,0-14.93,0,1.32-7.82,2.58-15.27,3.87-22.9Z"/>
    <path class="cls-16" d="M515.64,87.91c7.23-2.31,13.79-4.4,20.38-6.51,1.09,2.41,2.12,4.71,3.27,7.24-5.42,4.58-10.9,9.22-16.86,14.25-2.29-5.05-4.45-9.83-6.79-14.99Z"/>
    <path class="cls-10" d="M548.82,98.21c2.3.98,4.45,1.9,6.76,2.88-1.26,7.47-2.52,14.93-3.91,23.11-4.71-1.99-9.19-3.88-14-5.92,3.92-7.06,7.53-13.56,11.15-20.07Z"/>
    <path class="cls-5" d="M535.33,116.39c-2.36-2.17-4.5-3.99-6.49-6-1.5-1.51-2.82-3.25-4.43-5.14,5.62-4.76,11.09-9.39,16.63-14.08,1.75,1.76,3.46,3.47,5.33,5.35-3.59,6.47-7.21,12.98-11.04,19.87Z"/>
    <path class="cls-12" d="M572.36,124.08c-1.39-8.22-2.66-15.67-3.94-23.23,2.15-.97,4.27-1.93,6.57-2.96,3.62,6.51,7.23,13.01,11.14,20.04-4.61,2.06-9,4.03-13.76,6.16Z"/>
    <path class="cls-19" d="M580.44,22.4c4.34,3.02,8.42,5.85,12.71,8.84-5,6.07-9.61,11.66-14.29,17.34-2.05-1.41-4-2.75-6.06-4.17,2.48-7.15,4.95-14.29,7.63-22.01Z"/>
    <path class="cls-1" d="M560.3,18.17c0,8.26,0,15.85,0,23.55-2.17.46-4.36.93-6.82,1.46-2.47-7.06-4.97-14.2-7.7-22,4.89-1.01,9.59-1.99,14.52-3.01Z"/>
    <path class="cls-22" d="M588.56,116.25c-3.96-7.13-7.55-13.59-11.15-20.07,1.76-1.85,3.39-3.56,5.17-5.43,5.46,4.57,10.96,9.18,16.91,14.16-3.68,3.82-7.16,7.42-10.93,11.34Z"/>
    <path class="cls-8" d="M563.44,41.75c0-7.6,0-15.19,0-23.48,4.8,1,9.44,1.97,14.29,2.98-2.65,7.67-5.11,14.76-7.61,21.98-2.24-.5-4.42-.98-6.68-1.48Z"/>
    <path class="cls-4" d="M605.47,49.37c1.38,5.43,2.65,10.45,4.01,15.81-7.37.77-14.22,1.49-21.06,2.21-.67-2.55-1.27-4.86-1.96-7.49,6.09-3.38,12.26-6.8,19.01-10.54Z"/>
    <path class="cls-13" d="M518.36,49.16c6.37,3.54,12.47,6.92,18.6,10.33-.69,2.59-1.33,4.97-2.02,7.57-6.77-.66-13.55-1.32-20.59-2.01.37-5.65,1.96-10.68,4.01-15.89Z"/>
    <path class="cls-11" d="M595.26,33.4c3.02,4.44,5.85,8.61,8.91,13.12-6.61,3.66-12.77,7.08-18.96,10.51-1.43-2.1-2.79-4.09-4.26-6.24,4.59-5.58,9.22-11.2,14.31-17.38Z"/>
    <path class="cls-9" d="M519.33,46.1c3.1-4.48,5.97-8.63,9.07-13.12,4.99,6.07,9.63,11.73,14.28,17.38-1.46,2.11-2.84,4.09-4.37,6.29-6.12-3.4-12.28-6.82-18.98-10.54Z"/>
    <path class="cls-2" d="M588.05,78.24c.22-2.63.41-4.96.62-7.61,6.78-.72,13.63-1.44,21.1-2.23-.45,5.49-.88,10.67-1.34,16.32-7.03-2.23-13.63-4.33-20.37-6.48Z"/>
    <path class="cls-18" d="M530.57,30.84c4.27-2.91,8.27-5.63,12.53-8.53,2.67,7.65,5.16,14.77,7.66,21.94-2.01,1.37-3.91,2.66-5.91,4.01-4.62-5.63-9.22-11.24-14.29-17.42Z"/>
    <path class="cls-21" d="M601.28,102.39c-5.72-4.78-10.86-9.02-15.92-13.39-.43-.38-.59-1.69-.37-2.36.56-1.74,1.41-3.36,2.26-5.28,2.17.67,4.4,1.34,6.61,2.05,3.92,1.25,7.82,2.57,11.76,3.75,1.17.35,1.72.87,1.18,2.17-1.77,4.24-3.57,8.46-5.52,13.06Z"/>
  </g>
  <g>
    <path class="cls-14" d="M275.47,113.46c2.98-10.32,5.83-19.93,8.47-29.62.64-2.34,1.46-3.26,3.73-3.09,3.48.25,6.99.07,10.64.07,0,15.79,0,31.41,0,47.18-3.38,0-6.69,0-10.45,0,.34-10.6.67-21.08,1-31.56-.08-.02-.16-.04-.24-.06-2.55,8.34-5.1,16.68-7.65,25.02-.23.77-.46,1.54-.7,2.3-1.43,4.46-1.44,4.29-5.67,4.53-2.12.12-2.89-.79-3.49-2.84-2.49-8.48-5.1-16.91-7.68-25.36-.29-.97-.64-1.91-1.37-2.77.34,10.21.68,20.43,1.03,30.77-3.71,0-6.98,0-10.41,0,0-15.66,0-31.28,0-47.06,4.41,0,8.83,0,13.39,0,3.07,10.6,6.14,21.22,9.4,32.48Z"/>
    <path class="cls-14" d="M255.48,62.86c-3.19,0-6.19.11-9.16-.08-.72-.05-1.62-.94-2.03-1.71-4.5-8.63-8.92-17.31-13.36-25.98-.21-.41-.45-.8-.99-1.76,0,10.13,0,19.62,0,29.33-3.59,0-6.97,0-10.48,0,0-15.92,0-31.8,0-48.05,3.32,0,6.64-.07,9.96.08.48.02,1.04,1.01,1.37,1.66,4.14,8.02,8.24,16.07,12.35,24.1.53,1.03,1.08,2.04,1.99,2.96,0-9.5,0-19.01,0-28.67,3.54,0,6.86,0,10.34,0,0,15.96,0,31.89,0,48.13Z"/>
    <path class="cls-23" d="M344.95,100.17c0,9.22,0,18.44,0,27.82-3.49,0-6.8,0-10.25,0,0-15.65,0-31.21,0-47.16,3.23,0,6.48-.1,9.72.09.59.04,1.23,1.23,1.64,2.02,4.29,8.3,8.53,16.63,12.79,24.95.21.41.44.81.97,1.8,0-9.94,0-19.26,0-28.74,3.56,0,6.88,0,10.33,0,0,15.69,0,31.31,0,47.18-3.26,0-6.38.1-9.5-.09-.61-.04-1.33-1.11-1.73-1.88-4.27-8.22-8.48-16.48-12.71-24.73-.24-.48-.53-.93-.8-1.39-.16.04-.32.09-.47.13Z"/>
    <path class="cls-20" d="M305.68,14.11c7.89.48,15.6.28,23.1,1.58,8.24,1.43,12.04,10.43,8.26,17.99-.91,1.82-2.55,3.18-3.82,4.7,5.11,3.33,6.79,6.92,5.87,12.91-.93,6.08-4.21,9.88-9.96,10.92-3,.55-6.09.55-9.14.61-4.72.09-9.45.02-14.31.02,0-16.15,0-32.07,0-48.74ZM316.23,42.4c0,3.99,0,7.67,0,11.5,2.7,0,5.26.16,7.78-.04,3.09-.25,4.83-2.54,4.74-5.79-.09-3.48-1.89-5.52-5.12-5.64-2.4-.09-4.8-.02-7.41-.02ZM316.25,23.91c0,3.57,0,7.08,0,10.62,2.51,0,4.85.13,7.18-.03,2.73-.19,4.29-2.11,4.4-5.03.11-2.97-1.25-5.16-3.92-5.49-2.5-.31-5.05-.07-7.65-.07Z"/>
    <path class="cls-17" d="M3.96,80.88c5.45,0,10.72-.33,15.95.07,9.57.74,16.56,8.94,17.38,20.05.58,7.84-.36,15.27-5.73,21.15-3.36,3.68-7.45,5.73-12.14,5.89-5.1.18-10.2.04-15.46.04,0-15.74,0-31.36,0-47.21ZM14.31,119.17c8.09.72,11.26-1.9,12.28-10.46.37-3.09.21-6.32-.13-9.43-.8-7.47-5.41-10.94-12.15-9.32,0,9.67,0,19.36,0,29.2Z"/>
    <path class="cls-24" d="M173.9,104.42c-.04-6.02.93-11.7,4.26-16.58,8.26-12.13,25.89-9.67,31.18,4.41,2.77,7.39,2.81,15.11.63,22.65-2.68,9.26-9.96,14.36-17.95,13.96-10.08-.51-16.04-8.19-17.47-17.19-.38-2.38-.44-4.83-.65-7.24ZM184.26,104.18c.09.02.17.04.26.06.08,1.94.07,3.9.28,5.82.15,1.35.51,2.7.93,3.99,1.26,3.85,3.66,5.78,7.04,5.76,3.21-.02,5.65-1.93,6.78-5.78,1.87-6.34,1.87-12.76.01-19.11-1.09-3.73-3.87-5.86-7.05-5.78-3.37.08-6.05,2.3-6.95,6.22-.66,2.88-.88,5.87-1.3,8.82Z"/>
    <path class="cls-6" d="M42.81,14.64c3.49,0,6.76,0,10.29,0,.04.91.1,1.76.1,2.62,0,9.83-.03,19.65.02,29.48.03,5.68,3.19,8.63,8.09,7.7,3.23-.61,4.96-3.16,4.99-7.71.06-9.74.02-19.49.03-29.23,0-.87,0-1.75,0-2.77,3.53,0,6.86,0,10.52,0,0,.85,0,1.7,0,2.55,0,9.18-.23,18.36.05,27.53.44,14.35-9.11,19.91-19.79,18.66-5.72-.67-10.45-3.18-12.98-9.24-.81-1.94-1.37-4.19-1.4-6.31-.14-10.72-.07-21.44-.06-32.15,0-.31.08-.62.16-1.12Z"/>
    <path class="cls-17" d="M2.6,47.34c3.58,0,6.91,0,10.22,0,.12.16.28.26.3.4.9,5.88,5.21,8.68,10.29,6.43,1.1-.49,2.21-1.89,2.61-3.15.58-1.81.15-3.83-1.51-4.92-1.68-1.1-3.52-1.92-5.31-2.81-3.18-1.59-6.52-2.87-9.53-4.8-3.93-2.52-6.12-6.53-5.8-11.72.33-5.44,3.24-8.92,7.61-10.9,5.63-2.55,11.38-2.73,17.07-.28,4.46,1.93,7.25,5.59,8.16,10.89.13.76.1,1.55.16,2.46-3.57,0-6.9,0-10.2,0-2.05-5.66-5.32-7.52-9.5-5.44-1.49.74-2.88,1.86-2.59,3.76.22,1.42,1.01,3.18,2.05,3.89,2.08,1.42,4.51,2.21,6.77,3.31,2.33,1.13,4.77,2.07,6.95,3.51,5.07,3.35,7.35,8.62,6.41,14.27-1.04,6.25-4.84,9.39-10.1,10.67-6.76,1.65-13.24.93-18.99-3.71-3.47-2.79-5.02-6.79-5.06-11.84Z"/>
    <path class="cls-17" d="M106.42,28.92c-.98-5.25-4.77-7.6-9.05-5.46-1.22.61-2.65,2.23-2.8,3.55-.15,1.29.9,3.28,1.97,4.1,1.75,1.35,3.97,1.94,5.94,2.98,3.33,1.77,6.97,3.14,9.86,5.58,7.06,5.97,5.76,17.58-2.17,21.89-7.44,4.04-18.84,2.19-24.14-3.98-2.41-2.81-3.56-6.19-3.46-10.24,3.51,0,6.84,0,10.15,0,.11.15.24.26.27.39,1.12,5.86,5.04,8.53,10.17,6.52,1.22-.48,2.45-2.07,2.92-3.47.65-1.95-.2-3.91-1.91-4.96-1.65-1.01-3.45-1.71-5.17-2.59-3.42-1.77-7.14-3.08-10.18-5.46-7.55-5.93-6.58-17.06,1.79-21.47,6.16-3.24,12.56-3.38,18.85-.26,4.73,2.35,7.72,7.88,7.05,12.86-3.31,0-6.63,0-10.08,0Z"/>
    <path class="cls-14" d="M196.56,62.85c-3.62,0-6.89.06-10.16-.06-.5-.02-1.2-.77-1.41-1.36-.68-1.96-1.06-4.05-1.8-5.98-.25-.67-1.17-1.42-1.81-1.45-3.79-.13-7.59-.13-11.38,0-.62.02-1.32.84-1.79,1.47-.35.46-.41,1.2-.58,1.81q-1.61,5.58-6.97,5.58c-1.82,0-3.64,0-5.8,0,1.11-3.46,2.12-6.7,3.18-9.92,3.96-12.02,7.98-24.02,11.88-36.06.55-1.71,1.19-2.5,2.9-2.36,2.54.21,5.71-.87,7.47.47,1.74,1.32,2.11,4.94,2.99,7.58,4.22,12.6,8.41,25.22,12.61,37.84.22.67.37,1.37.65,2.44ZM180.26,44.7c-1.5-5.35-2.94-10.51-4.39-15.67-.14.02-.27.04-.41.07-1.41,5.12-2.81,10.24-4.28,15.6,3.23,0,6.03,0,9.08,0Z"/>
    <path class="cls-15" d="M301.72,62.84c-3.62,0-7.02.04-10.42-.05-.38-.01-.87-.7-1.09-1.19-.35-.79-.53-1.68-.77-2.53q-1.5-5.14-6.23-5.14c-2.56,0-5.11.08-7.67-.03-1.3-.05-1.97.37-2.32,1.83-.57,2.34-.76,5.55-2.19,6.65-1.55,1.2-4.35.41-6.6.46-1.38.03-2.76,0-4.41,0,1.89-5.75,3.68-11.22,5.48-16.69,3.24-9.82,6.52-19.63,9.68-29.48.53-1.66,1.25-2.27,2.82-2.16,2.54.18,5.72-.88,7.48.45,1.75,1.32,2.13,4.94,3.01,7.59,4.22,12.62,8.41,25.25,12.6,37.88.22.67.36,1.37.63,2.39ZM276.39,44.55c3.23,0,6.05,0,9.03,0-1.5-5.3-2.91-10.3-4.32-15.31-.17.03-.34.06-.5.09-1.38,5-2.76,10-4.2,15.21Z"/>
    <path class="cls-17" d="M389.88,53.9c6.41,0,12.73,0,19.2,0,0,3.03,0,5.82,0,8.79-9.93,0-19.79,0-29.78,0,0-15.99,0-31.86,0-47.93,9.9,0,19.78,0,29.96,0,0,2.61.08,5.26-.08,7.89-.02.4-1.16,1-1.78,1.02-5.03.08-10.07.05-15.1.05-.78,0-1.57,0-2.46,0,0,3.4,0,6.51,0,9.92,4.54,0,8.97,0,13.39,0q2.98,0,2.99,3.25c0,1.76,0,3.52,0,5.53-5.58,0-10.87,0-16.33,0,0,3.86,0,7.47,0,11.48Z"/>
    <path class="cls-15" d="M215.44,80.56c7.34.26,14.59-.34,21.56.95,12.76,2.35,14.15,17.25,9.32,24.22-2.93,4.22-7.03,5.93-11.64,6.24-2.89.19-5.8.04-8.93.04,0,5.47,0,10.63,0,15.96-3.54,0-6.85,0-10.31,0,0-15.63,0-31.23,0-47.4ZM225.78,103.24c.94,0,1.65,0,2.37,0,1.75-.02,3.5.09,5.23-.1,3.03-.33,4.7-2.36,4.97-5.7.26-3.29-1.35-6.74-3.94-7.28-2.79-.58-5.69-.48-8.62-.68,0,4.83,0,9.1,0,13.76Z"/>
    <path class="cls-17" d="M51.95,99.5c4.96,0,9.76,0,14.67,0,0,2.88,0,5.53,0,8.49-4.82,0-9.66,0-14.68,0,0,3.89,0,7.47,0,11.31,5.89,0,11.7,0,17.65,0,0,3.03,0,5.82,0,8.73-9.39,0-18.64,0-28.08,0,0-15.64,0-31.26,0-47.05,9.29,0,18.6,0,28.09,0,0,2.75,0,5.54,0,8.57-5.84,0-11.65,0-17.65,0,0,3.34,0,6.44,0,9.95Z"/>
    <path class="cls-17" d="M328.16,108.21c-4.99,0-9.79,0-14.7,0,0,3.72,0,7.25,0,11.01,5.89,0,11.7,0,17.69,0,0,3.01,0,5.79,0,8.75-9.32,0-18.62,0-28.09,0,0-15.63,0-31.24,0-47.01,9.34,0,18.65,0,28.11,0,0,2.8,0,5.58,0,8.61-5.88,0-11.68,0-17.66,0,0,3.34,0,6.44,0,9.84,4.9,0,9.75,0,14.65,0,0,3.07,0,5.83,0,8.79Z"/>
    <path class="cls-17" d="M115.12,80.95c9.33,0,18.57,0,28,0,0,2.76,0,5.54,0,8.59-5.79,0-11.58,0-17.54,0,0,3.38,0,6.48,0,9.91,4.11,0,8.17.13,12.22-.05,2.09-.1,2.69.71,2.51,2.9-.15,1.83-.03,3.69-.03,5.78-5.01,0-9.79,0-14.72,0,0,3.78,0,7.31,0,11.11,5.69,0,11.41,0,17.33,0,0,3.04,0,5.82,0,8.78-9.2,0-18.42,0-27.78,0,0-15.67,0-31.28,0-47.02Z"/>
    <path class="cls-24" d="M72.51,80.82c3.44,0,6.85-.1,10.24.1.53.03,1.25,1.34,1.46,2.18,2.59,10.3,5.1,20.62,8.04,31.05,2.74-11.07,5.49-22.15,8.23-33.22,3.87,0,7.56,0,11.53,0-1.65,5.48-3.23,10.77-4.83,16.05-2.93,9.68-5.92,19.33-8.78,29.04-.51,1.73-1.24,2.25-2.79,2.17-2.55-.14-5.11.06-7.66-.1-.67-.04-1.7-.7-1.9-1.33-4.58-14.96-9.06-29.96-13.55-44.96-.06-.21,0-.47,0-.98Z"/>
    <path class="cls-15" d="M143.93,62.72c-3.71,0-7.03,0-10.6,0,0-13,0-25.87,0-38.96-4.29,0-8.35,0-12.6,0,0-3.09,0-5.96,0-9.01,11.96,0,23.96,0,36.19,0,0,2.6.1,5.11-.08,7.59-.04.51-1.12,1.29-1.75,1.32-3.64.13-7.28.06-11.16.06,0,13.05,0,25.91,0,39Z"/>
    <path class="cls-17" d="M386.19,89.63c-4.34,0-8.38,0-12.55,0,0-2.99,0-5.72,0-8.64,11.8,0,23.58,0,35.51,0,0,2.8,0,5.58,0,8.62-4.17,0-8.22,0-12.51,0,0,12.87,0,25.5,0,38.33-3.54,0-6.85,0-10.45,0,0-12.67,0-25.36,0-38.32Z"/>
    <path class="cls-6" d="M345.61,14.66c3.5,0,6.77,0,10.3,0,0,13.02,0,25.96,0,39.19,6.19,0,12.14,0,18.24,0,0,3.08,0,5.87,0,8.84-9.48,0-18.93,0-28.54,0,0-15.95,0-31.89,0-48.03Z"/>
    <path class="cls-23" d="M146.7,128.02c0-15.74,0-31.29,0-47.02,3.36,0,6.67,0,10.26,0,0,12.69,0,25.38,0,38.3,5.5,0,10.72,0,16.09,0,0,3.02,0,5.8,0,8.72-8.77,0-17.42,0-26.35,0Z"/>
    <path class="cls-23" d="M211.5,62.76c-3.45,0-6.79,0-10.32,0,0-15.98,0-31.89,0-48,3.36,0,6.74,0,10.32,0,0,15.87,0,31.78,0,48Z"/>
  </g>
</svg>